<?xml version="1.0" encoding="UTF-8"?>
<svg xmlns="http://www.w3.org/2000/svg" width="760" height="559.55122009888" viewBox="0 0 760 559.55122009888">
  <rect width="760" height="559.55122009888" rx="28" fill="#fffdf8"/>
  <rect x="16" y="16" width="728" height="527.55122009888" rx="20" fill="none" stroke="#171412" stroke-width="1.2"/>
  <path d="M 185.6 443.7 L 184.8 342.0 L 151.3 342.3 L 151.3 348.7 L 141.0 348.8 L 140.3 274.6 L 171.3 274.3 L 170.9 235.6 L 196.8 235.4 L 196.3 191.8 L 245.5 191.5 L 244.7 114.0 L 266.8 113.9 L 286.2 113.8 L 286.3 123.4 L 413.4 122.9 L 413.5 127.7 L 421.2 127.7 L 519.9 127.5 L 519.9 150.9 L 558.8 150.8 L 558.8 158.1 L 597.7 158.1 L 597.7 190.4 L 608.1 190.4 L 608.1 248.5 L 619.7 248.5 L 619.7 258.2 L 619.6 340.5 L 597.7 340.5 L 597.7 364.7 L 571.9 364.7 L 571.9 388.9 L 404.3 389.3 L 404.5 442.5 L 288.6 443.1 L 288.7 445.5 L 237.2 445.8 L 237.1 436.1 L 206.2 436.3 L 206.2 443.6 L 185.6 443.7 Z" fill="none" stroke="#968774" stroke-width="1.15" stroke-dasharray="4 6"/>
  <circle cx="602.8" cy="186.6" r="3.60" fill="#11100f"/>
  <circle cx="231.6" cy="372.7" r="3.42" fill="#11100f"/>
  <circle cx="436.5" cy="196.3" r="3.38" fill="#11100f"/>
  <circle cx="82.4" cy="139.3" r="3.36" fill="#11100f"/>
  <circle cx="439.0" cy="321.0" r="3.36" fill="#11100f"/>
  <circle cx="615.3" cy="321.3" r="3.16" fill="#11100f"/>
  <circle cx="383.0" cy="175.6" r="3.10" fill="#11100f"/>
  <circle cx="287.2" cy="471.4" r="3.09" fill="#11100f"/>
  <circle cx="151.2" cy="175.6" r="2.94" fill="#11100f"/>
  <circle cx="682.4" cy="169.4" r="2.90" fill="#11100f"/>
  <circle cx="379.0" cy="363.4" r="2.82" fill="#11100f"/>
  <circle cx="401.0" cy="230.0" r="2.76" fill="#11100f"/>
  <circle cx="298.6" cy="408.3" r="2.76" fill="#11100f"/>
  <circle cx="431.7" cy="58.4" r="2.70" fill="#11100f"/>
  <circle cx="60.1" cy="327.0" r="2.69" fill="#11100f"/>
  <circle cx="346.5" cy="468.5" r="2.68" fill="#11100f"/>
  <circle cx="470.9" cy="436.5" r="2.65" fill="#11100f"/>
  <circle cx="155.9" cy="99.8" r="2.63" fill="#11100f"/>
  <circle cx="65.4" cy="314.2" r="2.61" fill="#11100f"/>
  <circle cx="290.4" cy="222.8" r="2.61" fill="#11100f"/>
  <circle cx="328.0" cy="481.7" r="2.56" fill="#11100f"/>
  <circle cx="158.6" cy="417.5" r="2.53" fill="#11100f"/>
  <circle cx="110.6" cy="69.6" r="2.51" fill="#11100f"/>
  <circle cx="392.1" cy="240.1" r="2.50" fill="#11100f"/>
  <circle cx="579.4" cy="401.8" r="2.46" fill="#11100f"/>
  <circle cx="363.3" cy="469.5" r="2.46" fill="#11100f"/>
  <circle cx="703.0" cy="233.3" r="2.43" fill="#11100f"/>
  <circle cx="174.7" cy="276.5" r="2.43" fill="#11100f"/>
  <circle cx="529.6" cy="413.8" r="2.40" fill="#11100f"/>
  <circle cx="232.8" cy="219.9" r="2.40" fill="#11100f"/>
  <circle cx="313.4" cy="102.7" r="2.40" fill="#11100f"/>
  <circle cx="392.5" cy="350.4" r="2.36" fill="#11100f"/>
  <circle cx="81.0" cy="170.8" r="2.35" fill="#11100f"/>
  <circle cx="162.7" cy="86.8" r="2.35" fill="#11100f"/>
  <circle cx="83.5" cy="312.1" r="2.32" fill="#11100f"/>
  <circle cx="498.7" cy="406.5" r="2.32" fill="#11100f"/>
  <circle cx="298.0" cy="147.0" r="2.32" fill="#11100f"/>
  <circle cx="62.1" cy="479.0" r="2.30" fill="#11100f"/>
  <circle cx="676.1" cy="141.7" r="2.28" fill="#11100f"/>
  <circle cx="680.4" cy="184.4" r="2.28" fill="#11100f"/>
  <circle cx="232.4" cy="300.3" r="2.28" fill="#11100f"/>
  <circle cx="164.0" cy="130.3" r="2.24" fill="#11100f"/>
  <circle cx="492.1" cy="241.6" r="2.24" fill="#11100f"/>
  <circle cx="75.3" cy="322.3" r="2.23" fill="#11100f"/>
  <circle cx="155.1" cy="371.4" r="2.21" fill="#11100f"/>
  <circle cx="436.7" cy="431.3" r="2.20" fill="#11100f"/>
  <circle cx="231.5" cy="189.9" r="2.20" fill="#11100f"/>
  <circle cx="535.0" cy="451.1" r="2.20" fill="#11100f"/>
  <circle cx="308.0" cy="83.7" r="2.19" fill="#11100f"/>
  <circle cx="628.4" cy="112.0" r="2.18" fill="#11100f"/>
  <circle cx="194.9" cy="239.4" r="2.18" fill="#11100f"/>
  <circle cx="85.5" cy="114.9" r="2.17" fill="#11100f"/>
  <circle cx="444.8" cy="377.2" r="2.17" fill="#11100f"/>
  <circle cx="501.8" cy="344.7" r="2.17" fill="#11100f"/>
  <circle cx="97.6" cy="205.9" r="2.16" fill="#11100f"/>
  <circle cx="479.9" cy="238.4" r="2.14" fill="#11100f"/>
  <circle cx="625.2" cy="93.7" r="2.13" fill="#11100f"/>
  <circle cx="575.4" cy="224.8" r="2.11" fill="#11100f"/>
  <circle cx="54.3" cy="326.2" r="2.11" fill="#11100f"/>
  <circle cx="144.5" cy="370.2" r="2.07" fill="#11100f"/>
  <circle cx="280.8" cy="489.2" r="2.05" fill="#11100f"/>
  <circle cx="445.1" cy="221.6" r="2.04" fill="#11100f"/>
  <circle cx="327.2" cy="193.9" r="2.03" fill="#11100f"/>
  <circle cx="344.0" cy="422.8" r="2.03" fill="#11100f"/>
  <circle cx="618.8" cy="272.6" r="2.02" fill="#11100f"/>
  <circle cx="337.4" cy="455.0" r="2.02" fill="#11100f"/>
  <circle cx="379.8" cy="184.5" r="2.02" fill="#11100f"/>
  <circle cx="62.6" cy="263.0" r="2.01" fill="#11100f"/>
  <circle cx="327.7" cy="350.1" r="2.00" fill="#11100f"/>
  <circle cx="286.9" cy="419.3" r="1.98" fill="#11100f"/>
  <circle cx="207.4" cy="95.1" r="1.98" fill="#11100f"/>
  <circle cx="577.8" cy="502.8" r="1.97" fill="#11100f"/>
  <circle cx="373.4" cy="90.1" r="1.96" fill="#11100f"/>
  <circle cx="58.0" cy="493.0" r="1.95" fill="#11100f"/>
  <circle cx="414.5" cy="382.9" r="1.95" fill="#11100f"/>
  <circle cx="78.9" cy="223.6" r="1.95" fill="#11100f"/>
  <circle cx="84.9" cy="135.4" r="1.94" fill="#11100f"/>
  <circle cx="540.0" cy="183.9" r="1.94" fill="#11100f"/>
  <circle cx="496.1" cy="456.2" r="1.93" fill="#11100f"/>
  <circle cx="546.2" cy="434.5" r="1.93" fill="#11100f"/>
  <circle cx="514.1" cy="164.9" r="1.92" fill="#11100f"/>
  <circle cx="653.4" cy="295.0" r="1.89" fill="#11100f"/>
  <circle cx="103.9" cy="196.6" r="1.88" fill="#11100f"/>
  <circle cx="213.0" cy="76.9" r="1.88" fill="#11100f"/>
  <circle cx="451.3" cy="384.3" r="1.87" fill="#11100f"/>
  <circle cx="479.1" cy="416.2" r="1.87" fill="#11100f"/>
  <circle cx="62.6" cy="234.7" r="1.87" fill="#11100f"/>
  <circle cx="561.9" cy="283.1" r="1.87" fill="#11100f"/>
  <circle cx="64.1" cy="370.6" r="1.86" fill="#11100f"/>
  <circle cx="246.2" cy="176.1" r="1.86" fill="#11100f"/>
  <circle cx="254.4" cy="217.2" r="1.85" fill="#11100f"/>
  <circle cx="433.5" cy="54.2" r="1.85" fill="#11100f"/>
  <circle cx="486.1" cy="349.0" r="1.85" fill="#11100f"/>
  <circle cx="538.4" cy="368.2" r="1.85" fill="#11100f"/>
  <circle cx="219.7" cy="446.6" r="1.84" fill="#11100f"/>
  <circle cx="385.8" cy="63.3" r="1.84" fill="#11100f"/>
  <circle cx="585.9" cy="497.6" r="1.82" fill="#11100f"/>
  <circle cx="64.9" cy="463.6" r="1.81" fill="#11100f"/>
  <circle cx="83.5" cy="312.1" r="1.81" fill="#11100f"/>
  <circle cx="457.0" cy="383.9" r="1.81" fill="#11100f"/>
  <circle cx="635.6" cy="100.6" r="1.81" fill="#11100f"/>
  <circle cx="176.8" cy="402.3" r="1.81" fill="#11100f"/>
  <circle cx="407.2" cy="373.1" r="1.81" fill="#11100f"/>
  <circle cx="106.6" cy="335.4" r="1.79" fill="#11100f"/>
  <circle cx="658.7" cy="180.2" r="1.78" fill="#11100f"/>
  <circle cx="671.9" cy="503.1" r="1.78" fill="#11100f"/>
  <circle cx="135.6" cy="93.0" r="1.78" fill="#11100f"/>
  <circle cx="507.3" cy="88.3" r="1.77" fill="#11100f"/>
  <circle cx="115.5" cy="426.7" r="1.76" fill="#11100f"/>
  <circle cx="379.1" cy="78.7" r="1.75" fill="#11100f"/>
  <circle cx="236.5" cy="246.0" r="1.73" fill="#11100f"/>
  <circle cx="284.6" cy="477.1" r="1.73" fill="#11100f"/>
  <circle cx="687.0" cy="86.1" r="1.73" fill="#11100f"/>
  <circle cx="113.4" cy="252.1" r="1.73" fill="#11100f"/>
  <circle cx="115.5" cy="426.7" r="1.73" fill="#11100f"/>
  <circle cx="188.3" cy="108.8" r="1.73" fill="#11100f"/>
  <circle cx="226.6" cy="413.3" r="1.73" fill="#11100f"/>
  <circle cx="562.2" cy="362.3" r="1.73" fill="#11100f"/>
  <circle cx="512.9" cy="250.4" r="1.71" fill="#11100f"/>
  <circle cx="246.9" cy="300.9" r="1.70" fill="#11100f"/>
  <circle cx="305.2" cy="133.2" r="1.70" fill="#11100f"/>
  <circle cx="483.2" cy="160.2" r="1.70" fill="#11100f"/>
  <circle cx="684.0" cy="260.7" r="1.69" fill="#11100f"/>
  <circle cx="701.0" cy="318.4" r="1.69" fill="#11100f"/>
  <circle cx="325.0" cy="412.2" r="1.69" fill="#11100f"/>
  <circle cx="634.2" cy="389.0" r="1.68" fill="#11100f"/>
  <circle cx="665.1" cy="271.8" r="1.68" fill="#11100f"/>
  <circle cx="189.1" cy="200.9" r="1.67" fill="#11100f"/>
  <circle cx="452.6" cy="373.2" r="1.67" fill="#11100f"/>
  <circle cx="60.8" cy="358.1" r="1.66" fill="#11100f"/>
  <circle cx="449.1" cy="447.7" r="1.66" fill="#11100f"/>
  <circle cx="425.4" cy="459.0" r="1.65" fill="#11100f"/>
  <circle cx="677.3" cy="125.5" r="1.64" fill="#11100f"/>
  <circle cx="420.2" cy="267.2" r="1.64" fill="#11100f"/>
  <circle cx="215.1" cy="281.2" r="1.63" fill="#11100f"/>
  <circle cx="102.2" cy="144.5" r="1.63" fill="#11100f"/>
  <circle cx="182.9" cy="502.8" r="1.62" fill="#11100f"/>
  <circle cx="524.4" cy="290.1" r="1.62" fill="#11100f"/>
  <circle cx="550.2" cy="495.1" r="1.62" fill="#11100f"/>
  <circle cx="702.2" cy="352.3" r="1.60" fill="#11100f"/>
  <circle cx="113.8" cy="363.3" r="1.60" fill="#11100f"/>
  <circle cx="228.8" cy="69.7" r="1.60" fill="#11100f"/>
  <circle cx="349.4" cy="425.4" r="1.60" fill="#11100f"/>
  <circle cx="253.0" cy="189.4" r="1.60" fill="#11100f"/>
  <circle cx="69.1" cy="155.4" r="1.59" fill="#11100f"/>
  <circle cx="607.0" cy="360.4" r="1.59" fill="#11100f"/>
  <circle cx="106.6" cy="346.6" r="1.59" fill="#11100f"/>
  <circle cx="264.4" cy="351.3" r="1.59" fill="#11100f"/>
  <circle cx="595.9" cy="338.6" r="1.58" fill="#11100f"/>
  <circle cx="515.9" cy="78.6" r="1.58" fill="#11100f"/>
  <circle cx="466.8" cy="502.2" r="1.58" fill="#11100f"/>
  <circle cx="490.7" cy="154.7" r="1.58" fill="#11100f"/>
  <circle cx="604.5" cy="291.9" r="1.57" fill="#11100f"/>
  <circle cx="86.5" cy="410.1" r="1.57" fill="#11100f"/>
  <circle cx="172.1" cy="237.3" r="1.56" fill="#11100f"/>
  <circle cx="296.1" cy="147.0" r="1.56" fill="#11100f"/>
  <circle cx="480.4" cy="173.7" r="1.56" fill="#11100f"/>
  <circle cx="58.9" cy="212.0" r="1.56" fill="#11100f"/>
  <circle cx="560.5" cy="439.9" r="1.56" fill="#11100f"/>
  <circle cx="140.1" cy="175.8" r="1.55" fill="#11100f"/>
  <circle cx="275.1" cy="462.5" r="1.55" fill="#11100f"/>
  <circle cx="347.3" cy="379.9" r="1.55" fill="#11100f"/>
  <circle cx="417.5" cy="65.4" r="1.55" fill="#11100f"/>
  <circle cx="275.1" cy="341.2" r="1.55" fill="#11100f"/>
  <circle cx="129.6" cy="415.0" r="1.53" fill="#11100f"/>
  <circle cx="239.4" cy="442.3" r="1.53" fill="#11100f"/>
  <circle cx="515.9" cy="143.9" r="1.53" fill="#11100f"/>
  <circle cx="349.6" cy="152.8" r="1.53" fill="#11100f"/>
  <circle cx="275.3" cy="388.3" r="1.52" fill="#11100f"/>
  <circle cx="95.9" cy="194.7" r="1.52" fill="#11100f"/>
  <circle cx="217.0" cy="412.4" r="1.52" fill="#11100f"/>
  <circle cx="226.4" cy="455.9" r="1.52" fill="#11100f"/>
  <circle cx="181.1" cy="214.8" r="1.51" fill="#11100f"/>
  <circle cx="63.8" cy="174.5" r="1.51" fill="#11100f"/>
  <circle cx="71.4" cy="64.3" r="1.51" fill="#11100f"/>
  <circle cx="454.3" cy="297.9" r="1.51" fill="#11100f"/>
  <circle cx="520.4" cy="448.0" r="1.51" fill="#11100f"/>
  <circle cx="664.6" cy="400.9" r="1.50" fill="#11100f"/>
  <circle cx="63.1" cy="339.4" r="1.50" fill="#11100f"/>
  <circle cx="119.0" cy="281.1" r="1.50" fill="#11100f"/>
  <circle cx="229.6" cy="97.5" r="1.50" fill="#11100f"/>
  <circle cx="255.9" cy="277.8" r="1.50" fill="#11100f"/>
  <circle cx="286.7" cy="187.8" r="1.50" fill="#11100f"/>
  <circle cx="587.6" cy="386.1" r="1.49" fill="#11100f"/>
  <circle cx="179.6" cy="233.2" r="1.49" fill="#11100f"/>
  <circle cx="616.0" cy="70.9" r="1.49" fill="#11100f"/>
  <circle cx="377.5" cy="327.4" r="1.48" fill="#11100f"/>
  <circle cx="227.0" cy="70.5" r="1.48" fill="#11100f"/>
  <circle cx="364.6" cy="84.4" r="1.48" fill="#11100f"/>
  <circle cx="415.8" cy="116.2" r="1.48" fill="#11100f"/>
  <circle cx="705.7" cy="417.2" r="1.47" fill="#11100f"/>
  <circle cx="291.5" cy="279.7" r="1.47" fill="#11100f"/>
  <circle cx="190.3" cy="156.2" r="1.46" fill="#11100f"/>
  <circle cx="285.7" cy="210.0" r="1.46" fill="#11100f"/>
  <circle cx="340.8" cy="425.8" r="1.46" fill="#11100f"/>
  <circle cx="424.7" cy="354.7" r="1.46" fill="#11100f"/>
  <circle cx="646.6" cy="449.5" r="1.45" fill="#11100f"/>
  <circle cx="134.6" cy="166.3" r="1.45" fill="#11100f"/>
  <circle cx="218.3" cy="272.0" r="1.45" fill="#11100f"/>
  <circle cx="480.5" cy="98.5" r="1.45" fill="#11100f"/>
  <circle cx="554.1" cy="457.9" r="1.45" fill="#11100f"/>
  <circle cx="558.9" cy="378.1" r="1.45" fill="#11100f"/>
  <circle cx="250.6" cy="276.3" r="1.45" fill="#11100f"/>
  <circle cx="299.7" cy="355.7" r="1.45" fill="#11100f"/>
  <circle cx="567.7" cy="467.3" r="1.45" fill="#11100f"/>
  <circle cx="634.6" cy="149.6" r="1.44" fill="#11100f"/>
  <circle cx="292.5" cy="258.1" r="1.44" fill="#11100f"/>
  <circle cx="347.4" cy="209.1" r="1.44" fill="#11100f"/>
  <circle cx="586.8" cy="206.0" r="1.44" fill="#11100f"/>
  <circle cx="172.1" cy="397.1" r="1.43" fill="#11100f"/>
  <circle cx="477.9" cy="60.8" r="1.43" fill="#11100f"/>
  <circle cx="579.9" cy="141.7" r="1.43" fill="#11100f"/>
  <circle cx="396.3" cy="105.9" r="1.42" fill="#11100f"/>
  <circle cx="411.6" cy="77.3" r="1.42" fill="#11100f"/>
  <circle cx="280.8" cy="358.0" r="1.42" fill="#11100f"/>
  <circle cx="192.5" cy="253.5" r="1.41" fill="#11100f"/>
  <circle cx="372.4" cy="279.2" r="1.41" fill="#11100f"/>
  <circle cx="428.6" cy="439.1" r="1.41" fill="#11100f"/>
  <circle cx="461.3" cy="361.1" r="1.41" fill="#11100f"/>
  <circle cx="408.8" cy="305.2" r="1.40" fill="#11100f"/>
  <circle cx="554.6" cy="115.5" r="1.40" fill="#11100f"/>
  <circle cx="307.4" cy="191.2" r="1.40" fill="#11100f"/>
  <circle cx="629.2" cy="163.1" r="1.39" fill="#11100f"/>
  <circle cx="662.1" cy="143.1" r="1.39" fill="#11100f"/>
  <circle cx="682.5" cy="262.5" r="1.39" fill="#11100f"/>
  <circle cx="355.8" cy="83.0" r="1.39" fill="#11100f"/>
  <circle cx="359.9" cy="483.6" r="1.39" fill="#11100f"/>
  <circle cx="633.7" cy="168.7" r="1.38" fill="#11100f"/>
  <circle cx="675.9" cy="320.8" r="1.38" fill="#11100f"/>
  <circle cx="167.7" cy="98.0" r="1.38" fill="#11100f"/>
  <circle cx="534.7" cy="398.1" r="1.38" fill="#11100f"/>
  <circle cx="62.7" cy="239.0" r="1.37" fill="#11100f"/>
  <circle cx="401.9" cy="62.0" r="1.37" fill="#11100f"/>
  <circle cx="414.0" cy="109.2" r="1.37" fill="#11100f"/>
  <circle cx="514.7" cy="480.4" r="1.37" fill="#11100f"/>
  <circle cx="705.5" cy="397.6" r="1.37" fill="#11100f"/>
  <circle cx="380.3" cy="327.7" r="1.37" fill="#11100f"/>
  <circle cx="184.2" cy="113.2" r="1.36" fill="#11100f"/>
  <circle cx="302.8" cy="313.0" r="1.36" fill="#11100f"/>
  <circle cx="379.4" cy="65.9" r="1.36" fill="#11100f"/>
  <circle cx="385.8" cy="86.1" r="1.36" fill="#11100f"/>
  <circle cx="563.0" cy="498.9" r="1.36" fill="#11100f"/>
  <circle cx="672.7" cy="473.2" r="1.35" fill="#11100f"/>
  <circle cx="131.9" cy="410.6" r="1.35" fill="#11100f"/>
  <circle cx="554.6" cy="189.0" r="1.35" fill="#11100f"/>
  <circle cx="232.5" cy="325.2" r="1.34" fill="#11100f"/>
  <circle cx="166.4" cy="359.8" r="1.34" fill="#11100f"/>
  <circle cx="303.5" cy="226.7" r="1.34" fill="#11100f"/>
  <circle cx="446.0" cy="263.6" r="1.34" fill="#11100f"/>
  <circle cx="703.2" cy="403.0" r="1.33" fill="#11100f"/>
  <circle cx="118.0" cy="395.5" r="1.33" fill="#11100f"/>
  <circle cx="226.0" cy="124.4" r="1.33" fill="#11100f"/>
  <circle cx="474.1" cy="63.7" r="1.33" fill="#11100f"/>
  <circle cx="64.0" cy="314.9" r="1.33" fill="#11100f"/>
  <circle cx="498.0" cy="224.6" r="1.33" fill="#11100f"/>
  <circle cx="529.5" cy="374.6" r="1.33" fill="#11100f"/>
  <circle cx="272.6" cy="403.3" r="1.32" fill="#11100f"/>
  <circle cx="343.8" cy="159.9" r="1.32" fill="#11100f"/>
  <ellipse cx="691.1" cy="68.6" rx="6.6" ry="4.1" fill="none" stroke="#b21d18" stroke-width="1.4" />
  <circle cx="195.1" cy="350.5" r="4.7" fill="none" stroke="#b21d18" stroke-width="1.4" />
  <circle cx="204.1" cy="476.2" r="4.7" fill="none" stroke="#b21d18" stroke-width="1.4" />
  <ellipse cx="685.2" cy="64.6" rx="6.6" ry="4.1" fill="none" stroke="#b21d18" stroke-width="1.4" />
  <ellipse cx="691.1" cy="72.5" rx="6.6" ry="4.1" fill="none" stroke="#b21d18" stroke-width="1.4" />
  <text x="699.1" y="62.6" fill="#b21d18" font-family="Helvetica, Arial, sans-serif" font-size="10">M31</text>
  <text x="203.1" y="344.5" fill="#b21d18" font-family="Helvetica, Arial, sans-serif" font-size="10">M15</text>
  <text x="212.1" y="470.2" fill="#b21d18" font-family="Helvetica, Arial, sans-serif" font-size="10">M2</text>
  <text x="693.2" y="58.6" fill="#b21d18" font-family="Helvetica, Arial, sans-serif" font-size="10">M110</text>
  <text x="699.1" y="66.5" fill="#b21d18" font-family="Helvetica, Arial, sans-serif" font-size="10">M32</text>
  <text x="238.6" y="366.7" fill="#43382e" font-family="Helvetica, Arial, sans-serif" font-size="9">epsilon</text>
  <text x="443.5" y="190.3" fill="#43382e" font-family="Helvetica, Arial, sans-serif" font-size="9">beta</text>
  <text x="446.0" y="315.0" fill="#43382e" font-family="Helvetica, Arial, sans-serif" font-size="9">alpha</text>
  <text x="622.3" y="315.3" fill="#43382e" font-family="Helvetica, Arial, sans-serif" font-size="9">gamma</text>
  <text x="24" y="42" fill="#171412" font-family="Georgia, serif" font-size="26" font-weight="700">Pegasus</text>
  <text x="24" y="64" fill="#695a4d" font-family="Helvetica, Arial, sans-serif" font-size="11" letter-spacing="1.3">Peg · stars, IAU boundaries, Messier objects</text>
</svg>