<?xml version="1.0" encoding="UTF-8"?>
<svg xmlns="http://www.w3.org/2000/svg" width="760" height="1005.404138092726" viewBox="0 0 760 1005.404138092726">
  <rect width="760" height="1005.404138092726" rx="28" fill="#fffdf8"/>
  <rect x="16" y="16" width="728" height="973.404138092726" rx="20" fill="none" stroke="#171412" stroke-width="1.2"/>
  <path d="M 140.3 614.0 L 143.7 311.9 L 242.1 313.1 L 242.3 303.4 L 345.4 304.7 L 345.2 314.4 L 420.2 315.3 L 419.5 373.8 L 466.3 374.4 L 467.7 267.2 L 448.9 267.0 L 450.2 172.8 L 501.7 173.4 L 501.3 199.4 L 595.0 200.6 L 594.0 278.5 L 619.7 278.9 L 618.4 386.1 L 617.9 425.0 L 599.2 424.8 L 596.9 619.7 L 596.0 697.7 L 481.2 696.2 L 479.6 832.6 L 268.9 830.0 L 270.5 693.6 L 153.5 692.1 L 154.3 614.2 L 140.3 614.0 Z" fill="none" stroke="#968774" stroke-width="1.15" stroke-dasharray="4 6"/>
  <circle cx="286.1" cy="778.5" r="4.70" fill="#11100f"/>
  <circle cx="476.4" cy="474.3" r="4.54" fill="#11100f"/>
  <circle cx="105.2" cy="296.9" r="4.30" fill="#11100f"/>
  <circle cx="335.7" cy="494.9" r="3.85" fill="#11100f"/>
  <circle cx="341.1" cy="61.1" r="3.84" fill="#11100f"/>
  <circle cx="387.6" cy="642.1" r="3.82" fill="#11100f"/>
  <circle cx="408.9" cy="656.5" r="3.79" fill="#11100f"/>
  <circle cx="675.6" cy="299.0" r="3.68" fill="#11100f"/>
  <circle cx="441.7" cy="807.1" r="3.60" fill="#11100f"/>
  <circle cx="367.9" cy="624.5" r="3.50" fill="#11100f"/>
  <circle cx="383.9" cy="733.8" r="3.21" fill="#11100f"/>
  <circle cx="254.8" cy="717.8" r="3.19" fill="#11100f"/>
  <circle cx="606.5" cy="179.8" r="3.14" fill="#11100f"/>
  <circle cx="394.3" cy="206.6" r="3.08" fill="#11100f"/>
  <circle cx="704.7" cy="128.8" r="3.03" fill="#11100f"/>
  <circle cx="170.4" cy="483.0" r="2.95" fill="#11100f"/>
  <circle cx="278.6" cy="934.5" r="2.89" fill="#11100f"/>
  <circle cx="568.7" cy="180.0" r="2.88" fill="#11100f"/>
  <circle cx="332.6" cy="665.4" r="2.86" fill="#11100f"/>
  <circle cx="382.6" cy="425.0" r="2.83" fill="#11100f"/>
  <circle cx="71.2" cy="309.3" r="2.83" fill="#11100f"/>
  <circle cx="71.0" cy="244.8" r="2.75" fill="#11100f"/>
  <circle cx="437.9" cy="907.5" r="2.74" fill="#11100f"/>
  <circle cx="300.4" cy="752.1" r="2.72" fill="#11100f"/>
  <circle cx="176.8" cy="509.4" r="2.67" fill="#11100f"/>
  <circle cx="191.1" cy="571.1" r="2.65" fill="#11100f"/>
  <circle cx="482.2" cy="894.8" r="2.65" fill="#11100f"/>
  <circle cx="634.0" cy="755.7" r="2.62" fill="#11100f"/>
  <circle cx="399.5" cy="669.3" r="2.61" fill="#11100f"/>
  <circle cx="70.8" cy="307.5" r="2.57" fill="#11100f"/>
  <circle cx="115.8" cy="897.4" r="2.56" fill="#11100f"/>
  <circle cx="107.1" cy="684.0" r="2.52" fill="#11100f"/>
  <circle cx="568.6" cy="741.0" r="2.49" fill="#11100f"/>
  <circle cx="150.1" cy="682.1" r="2.47" fill="#11100f"/>
  <circle cx="201.0" cy="355.2" r="2.45" fill="#11100f"/>
  <circle cx="390.8" cy="437.6" r="2.43" fill="#11100f"/>
  <circle cx="510.2" cy="430.6" r="2.41" fill="#11100f"/>
  <circle cx="330.1" cy="770.8" r="2.40" fill="#11100f"/>
  <circle cx="634.6" cy="224.7" r="2.40" fill="#11100f"/>
  <circle cx="518.3" cy="165.2" r="2.39" fill="#11100f"/>
  <circle cx="362.2" cy="502.7" r="2.36" fill="#11100f"/>
  <circle cx="55.8" cy="184.1" r="2.36" fill="#11100f"/>
  <circle cx="104.0" cy="420.6" r="2.33" fill="#11100f"/>
  <circle cx="260.8" cy="789.3" r="2.33" fill="#11100f"/>
  <circle cx="115.7" cy="374.8" r="2.32" fill="#11100f"/>
  <circle cx="134.8" cy="171.2" r="2.32" fill="#11100f"/>
  <circle cx="60.2" cy="174.0" r="2.32" fill="#11100f"/>
  <circle cx="309.7" cy="875.5" r="2.31" fill="#11100f"/>
  <circle cx="56.4" cy="269.2" r="2.31" fill="#11100f"/>
  <circle cx="368.9" cy="256.2" r="2.29" fill="#11100f"/>
  <circle cx="174.0" cy="445.2" r="2.28" fill="#11100f"/>
  <circle cx="184.7" cy="724.9" r="2.27" fill="#11100f"/>
  <circle cx="280.0" cy="870.9" r="2.27" fill="#11100f"/>
  <circle cx="381.1" cy="433.7" r="2.25" fill="#11100f"/>
  <circle cx="472.7" cy="223.5" r="2.25" fill="#11100f"/>
  <circle cx="610.3" cy="529.1" r="2.25" fill="#11100f"/>
  <circle cx="534.5" cy="330.8" r="2.24" fill="#11100f"/>
  <circle cx="275.6" cy="850.0" r="2.22" fill="#11100f"/>
  <circle cx="554.9" cy="341.7" r="2.22" fill="#11100f"/>
  <circle cx="280.2" cy="562.9" r="2.21" fill="#11100f"/>
  <circle cx="211.2" cy="585.2" r="2.21" fill="#11100f"/>
  <circle cx="653.1" cy="475.7" r="2.21" fill="#11100f"/>
  <circle cx="60.4" cy="314.2" r="2.20" fill="#11100f"/>
  <circle cx="705.0" cy="360.8" r="2.20" fill="#11100f"/>
  <circle cx="401.5" cy="538.3" r="2.19" fill="#11100f"/>
  <circle cx="499.3" cy="678.6" r="2.17" fill="#11100f"/>
  <circle cx="467.7" cy="80.5" r="2.16" fill="#11100f"/>
  <circle cx="383.7" cy="713.0" r="2.14" fill="#11100f"/>
  <circle cx="343.7" cy="558.3" r="2.14" fill="#11100f"/>
  <circle cx="232.5" cy="197.8" r="2.12" fill="#11100f"/>
  <circle cx="367.5" cy="761.0" r="2.12" fill="#11100f"/>
  <circle cx="194.1" cy="420.8" r="2.11" fill="#11100f"/>
  <circle cx="517.3" cy="226.1" r="2.11" fill="#11100f"/>
  <circle cx="95.5" cy="329.3" r="2.10" fill="#11100f"/>
  <circle cx="239.4" cy="318.4" r="2.10" fill="#11100f"/>
  <circle cx="690.9" cy="425.8" r="2.10" fill="#11100f"/>
  <circle cx="120.9" cy="308.4" r="2.09" fill="#11100f"/>
  <circle cx="527.8" cy="909.8" r="2.09" fill="#11100f"/>
  <circle cx="61.6" cy="331.9" r="2.08" fill="#11100f"/>
  <circle cx="183.0" cy="340.9" r="2.07" fill="#11100f"/>
  <circle cx="357.2" cy="639.9" r="2.07" fill="#11100f"/>
  <circle cx="319.9" cy="626.1" r="2.06" fill="#11100f"/>
  <circle cx="463.6" cy="582.5" r="2.04" fill="#11100f"/>
  <circle cx="400.1" cy="759.2" r="2.03" fill="#11100f"/>
  <circle cx="80.1" cy="303.0" r="2.03" fill="#11100f"/>
  <circle cx="217.7" cy="863.0" r="2.03" fill="#11100f"/>
  <circle cx="382.1" cy="735.6" r="2.03" fill="#11100f"/>
  <circle cx="224.7" cy="758.5" r="2.02" fill="#11100f"/>
  <circle cx="263.4" cy="314.7" r="2.01" fill="#11100f"/>
  <circle cx="489.6" cy="112.8" r="2.01" fill="#11100f"/>
  <circle cx="682.9" cy="894.4" r="2.00" fill="#11100f"/>
  <circle cx="411.4" cy="296.4" r="1.99" fill="#11100f"/>
  <circle cx="347.4" cy="191.1" r="1.97" fill="#11100f"/>
  <circle cx="447.5" cy="139.8" r="1.97" fill="#11100f"/>
  <circle cx="333.9" cy="582.7" r="1.96" fill="#11100f"/>
  <circle cx="450.0" cy="372.1" r="1.96" fill="#11100f"/>
  <circle cx="416.9" cy="589.9" r="1.96" fill="#11100f"/>
  <circle cx="86.3" cy="619.5" r="1.95" fill="#11100f"/>
  <circle cx="252.9" cy="255.2" r="1.95" fill="#11100f"/>
  <circle cx="592.6" cy="676.0" r="1.95" fill="#11100f"/>
  <circle cx="507.6" cy="825.2" r="1.95" fill="#11100f"/>
  <circle cx="522.3" cy="939.9" r="1.95" fill="#11100f"/>
  <circle cx="409.3" cy="640.7" r="1.93" fill="#11100f"/>
  <circle cx="555.4" cy="304.3" r="1.93" fill="#11100f"/>
  <circle cx="70.2" cy="299.8" r="1.92" fill="#11100f"/>
  <circle cx="308.3" cy="188.0" r="1.92" fill="#11100f"/>
  <circle cx="383.1" cy="723.7" r="1.91" fill="#11100f"/>
  <circle cx="383.7" cy="724.2" r="1.91" fill="#11100f"/>
  <circle cx="119.1" cy="854.9" r="1.91" fill="#11100f"/>
  <circle cx="324.9" cy="549.6" r="1.91" fill="#11100f"/>
  <circle cx="332.4" cy="279.8" r="1.90" fill="#11100f"/>
  <circle cx="572.7" cy="886.0" r="1.90" fill="#11100f"/>
  <circle cx="72.0" cy="364.3" r="1.89" fill="#11100f"/>
  <circle cx="172.1" cy="934.7" r="1.88" fill="#11100f"/>
  <circle cx="494.6" cy="804.9" r="1.88" fill="#11100f"/>
  <circle cx="576.0" cy="379.5" r="1.88" fill="#11100f"/>
  <circle cx="554.6" cy="746.3" r="1.87" fill="#11100f"/>
  <circle cx="629.9" cy="711.5" r="1.87" fill="#11100f"/>
  <circle cx="332.6" cy="636.0" r="1.86" fill="#11100f"/>
  <circle cx="120.4" cy="310.7" r="1.85" fill="#11100f"/>
  <circle cx="177.6" cy="251.5" r="1.85" fill="#11100f"/>
  <circle cx="656.5" cy="642.4" r="1.85" fill="#11100f"/>
  <circle cx="258.9" cy="705.5" r="1.84" fill="#11100f"/>
  <circle cx="249.7" cy="709.4" r="1.83" fill="#11100f"/>
  <circle cx="383.2" cy="723.7" r="1.82" fill="#11100f"/>
  <circle cx="515.2" cy="234.9" r="1.82" fill="#11100f"/>
  <circle cx="581.9" cy="946.4" r="1.81" fill="#11100f"/>
  <circle cx="646.0" cy="860.2" r="1.81" fill="#11100f"/>
  <circle cx="193.6" cy="396.0" r="1.80" fill="#11100f"/>
  <circle cx="272.8" cy="305.9" r="1.80" fill="#11100f"/>
  <circle cx="404.1" cy="113.9" r="1.80" fill="#11100f"/>
  <circle cx="518.8" cy="749.4" r="1.79" fill="#11100f"/>
  <circle cx="626.5" cy="612.8" r="1.79" fill="#11100f"/>
  <circle cx="97.1" cy="779.1" r="1.78" fill="#11100f"/>
  <circle cx="568.5" cy="245.3" r="1.78" fill="#11100f"/>
  <circle cx="697.6" cy="274.7" r="1.78" fill="#11100f"/>
  <circle cx="493.5" cy="607.9" r="1.78" fill="#11100f"/>
  <circle cx="612.2" cy="843.4" r="1.78" fill="#11100f"/>
  <circle cx="695.4" cy="797.3" r="1.78" fill="#11100f"/>
  <circle cx="113.1" cy="666.9" r="1.77" fill="#11100f"/>
  <circle cx="647.9" cy="393.6" r="1.77" fill="#11100f"/>
  <circle cx="97.1" cy="793.5" r="1.76" fill="#11100f"/>
  <circle cx="385.0" cy="713.3" r="1.76" fill="#11100f"/>
  <circle cx="328.1" cy="890.1" r="1.75" fill="#11100f"/>
  <circle cx="442.8" cy="492.9" r="1.75" fill="#11100f"/>
  <circle cx="663.8" cy="72.5" r="1.75" fill="#11100f"/>
  <circle cx="56.0" cy="186.0" r="1.74" fill="#11100f"/>
  <circle cx="591.3" cy="771.1" r="1.74" fill="#11100f"/>
  <circle cx="254.6" cy="220.7" r="1.74" fill="#11100f"/>
  <circle cx="441.5" cy="347.7" r="1.74" fill="#11100f"/>
  <circle cx="311.6" cy="858.7" r="1.73" fill="#11100f"/>
  <circle cx="111.3" cy="599.2" r="1.71" fill="#11100f"/>
  <circle cx="378.5" cy="545.2" r="1.71" fill="#11100f"/>
  <circle cx="187.0" cy="569.8" r="1.71" fill="#11100f"/>
  <circle cx="193.6" cy="467.0" r="1.71" fill="#11100f"/>
  <circle cx="254.9" cy="453.0" r="1.71" fill="#11100f"/>
  <circle cx="307.8" cy="568.1" r="1.70" fill="#11100f"/>
  <circle cx="371.1" cy="649.7" r="1.70" fill="#11100f"/>
  <circle cx="571.2" cy="304.0" r="1.70" fill="#11100f"/>
  <circle cx="152.6" cy="390.5" r="1.70" fill="#11100f"/>
  <circle cx="375.0" cy="641.2" r="1.69" fill="#11100f"/>
  <circle cx="458.6" cy="765.2" r="1.69" fill="#11100f"/>
  <circle cx="587.2" cy="801.7" r="1.69" fill="#11100f"/>
  <circle cx="384.0" cy="150.1" r="1.69" fill="#11100f"/>
  <circle cx="530.1" cy="700.4" r="1.69" fill="#11100f"/>
  <circle cx="120.1" cy="465.2" r="1.68" fill="#11100f"/>
  <circle cx="145.1" cy="401.4" r="1.67" fill="#11100f"/>
  <circle cx="217.2" cy="818.7" r="1.67" fill="#11100f"/>
  <circle cx="579.1" cy="424.9" r="1.67" fill="#11100f"/>
  <circle cx="80.4" cy="351.2" r="1.67" fill="#11100f"/>
  <circle cx="345.2" cy="268.6" r="1.67" fill="#11100f"/>
  <circle cx="261.7" cy="427.1" r="1.65" fill="#11100f"/>
  <circle cx="648.1" cy="777.7" r="1.65" fill="#11100f"/>
  <circle cx="572.8" cy="374.0" r="1.64" fill="#11100f"/>
  <circle cx="124.6" cy="380.9" r="1.64" fill="#11100f"/>
  <circle cx="121.2" cy="898.5" r="1.63" fill="#11100f"/>
  <circle cx="364.3" cy="554.5" r="1.63" fill="#11100f"/>
  <circle cx="80.5" cy="312.8" r="1.63" fill="#11100f"/>
  <circle cx="355.1" cy="128.5" r="1.63" fill="#11100f"/>
  <circle cx="440.2" cy="273.1" r="1.63" fill="#11100f"/>
  <circle cx="300.7" cy="882.2" r="1.62" fill="#11100f"/>
  <circle cx="599.3" cy="848.1" r="1.62" fill="#11100f"/>
  <circle cx="159.9" cy="948.7" r="1.62" fill="#11100f"/>
  <circle cx="450.3" cy="900.9" r="1.62" fill="#11100f"/>
  <circle cx="201.1" cy="719.4" r="1.61" fill="#11100f"/>
  <circle cx="256.0" cy="145.7" r="1.61" fill="#11100f"/>
  <circle cx="287.0" cy="518.2" r="1.61" fill="#11100f"/>
  <circle cx="369.0" cy="286.2" r="1.61" fill="#11100f"/>
  <circle cx="205.7" cy="284.3" r="1.60" fill="#11100f"/>
  <circle cx="293.2" cy="397.6" r="1.60" fill="#11100f"/>
  <circle cx="348.0" cy="309.3" r="1.60" fill="#11100f"/>
  <circle cx="670.3" cy="720.2" r="1.60" fill="#11100f"/>
  <circle cx="64.8" cy="170.4" r="1.59" fill="#11100f"/>
  <circle cx="70.6" cy="591.7" r="1.59" fill="#11100f"/>
  <circle cx="391.6" cy="286.5" r="1.59" fill="#11100f"/>
  <circle cx="454.4" cy="339.8" r="1.59" fill="#11100f"/>
  <circle cx="626.7" cy="624.0" r="1.58" fill="#11100f"/>
  <circle cx="627.0" cy="562.0" r="1.58" fill="#11100f"/>
  <circle cx="543.8" cy="902.9" r="1.58" fill="#11100f"/>
  <circle cx="656.4" cy="342.8" r="1.57" fill="#11100f"/>
  <circle cx="78.2" cy="313.9" r="1.56" fill="#11100f"/>
  <circle cx="271.3" cy="849.6" r="1.55" fill="#11100f"/>
  <circle cx="335.2" cy="820.0" r="1.55" fill="#11100f"/>
  <circle cx="376.8" cy="339.8" r="1.55" fill="#11100f"/>
  <circle cx="382.9" cy="419.1" r="1.55" fill="#11100f"/>
  <circle cx="456.7" cy="73.5" r="1.55" fill="#11100f"/>
  <circle cx="463.3" cy="342.4" r="1.55" fill="#11100f"/>
  <circle cx="650.7" cy="733.0" r="1.55" fill="#11100f"/>
  <circle cx="73.4" cy="873.0" r="1.55" fill="#11100f"/>
  <circle cx="474.3" cy="848.1" r="1.54" fill="#11100f"/>
  <circle cx="571.9" cy="628.6" r="1.54" fill="#11100f"/>
  <circle cx="522.3" cy="537.6" r="1.53" fill="#11100f"/>
  <circle cx="332.6" cy="949.5" r="1.53" fill="#11100f"/>
  <circle cx="213.4" cy="937.8" r="1.52" fill="#11100f"/>
  <circle cx="96.9" cy="510.1" r="1.51" fill="#11100f"/>
  <circle cx="375.0" cy="257.3" r="1.51" fill="#11100f"/>
  <circle cx="382.0" cy="735.8" r="1.51" fill="#11100f"/>
  <circle cx="522.3" cy="513.0" r="1.51" fill="#11100f"/>
  <circle cx="593.0" cy="333.1" r="1.51" fill="#11100f"/>
  <circle cx="318.8" cy="626.8" r="1.51" fill="#11100f"/>
  <circle cx="329.0" cy="621.8" r="1.50" fill="#11100f"/>
  <circle cx="493.8" cy="369.0" r="1.49" fill="#11100f"/>
  <circle cx="541.0" cy="569.9" r="1.49" fill="#11100f"/>
  <circle cx="579.9" cy="519.2" r="1.49" fill="#11100f"/>
  <circle cx="95.8" cy="750.0" r="1.49" fill="#11100f"/>
  <circle cx="195.1" cy="944.9" r="1.49" fill="#11100f"/>
  <circle cx="196.0" cy="938.6" r="1.49" fill="#11100f"/>
  <circle cx="389.4" cy="736.9" r="1.49" fill="#11100f"/>
  <circle cx="68.2" cy="197.3" r="1.48" fill="#11100f"/>
  <circle cx="439.1" cy="336.3" r="1.48" fill="#11100f"/>
  <circle cx="130.6" cy="60.9" r="1.48" fill="#11100f"/>
  <circle cx="544.6" cy="168.2" r="1.46" fill="#11100f"/>
  <circle cx="89.8" cy="681.2" r="1.46" fill="#11100f"/>
  <circle cx="164.3" cy="936.9" r="1.46" fill="#11100f"/>
  <circle cx="555.3" cy="232.9" r="1.46" fill="#11100f"/>
  <circle cx="164.6" cy="729.2" r="1.45" fill="#11100f"/>
  <circle cx="349.3" cy="282.7" r="1.45" fill="#11100f"/>
  <circle cx="358.1" cy="583.8" r="1.45" fill="#11100f"/>
  <circle cx="115.7" cy="306.2" r="1.45" fill="#11100f"/>
  <circle cx="143.5" cy="784.4" r="1.45" fill="#11100f"/>
  <circle cx="319.7" cy="454.4" r="1.45" fill="#11100f"/>
  <circle cx="437.5" cy="433.1" r="1.45" fill="#11100f"/>
  <circle cx="664.1" cy="601.3" r="1.45" fill="#11100f"/>
  <circle cx="198.5" cy="325.5" r="1.44" fill="#11100f"/>
  <circle cx="207.7" cy="151.9" r="1.44" fill="#11100f"/>
  <circle cx="209.4" cy="130.4" r="1.44" fill="#11100f"/>
  <circle cx="452.4" cy="426.3" r="1.44" fill="#11100f"/>
  <circle cx="691.4" cy="609.0" r="1.44" fill="#11100f"/>
  <circle cx="257.0" cy="787.5" r="1.44" fill="#11100f"/>
  <circle cx="355.7" cy="685.8" r="1.44" fill="#11100f"/>
  <circle cx="392.0" cy="93.9" r="1.42" fill="#11100f"/>
  <circle cx="553.0" cy="142.7" r="1.42" fill="#11100f"/>
  <circle cx="564.1" cy="691.6" r="1.42" fill="#11100f"/>
  <circle cx="567.4" cy="707.7" r="1.42" fill="#11100f"/>
  <circle cx="255.1" cy="195.6" r="1.41" fill="#11100f"/>
  <circle cx="116.2" cy="215.5" r="1.41" fill="#11100f"/>
  <circle cx="230.9" cy="700.7" r="1.40" fill="#11100f"/>
  <circle cx="566.8" cy="269.6" r="1.40" fill="#11100f"/>
  <circle cx="65.7" cy="400.1" r="1.40" fill="#11100f"/>
  <circle cx="396.0" cy="471.7" r="1.40" fill="#11100f"/>
  <circle cx="477.9" cy="708.6" r="1.40" fill="#11100f"/>
  <circle cx="623.8" cy="648.0" r="1.40" fill="#11100f"/>
  <circle cx="99.2" cy="54.2" r="1.39" fill="#11100f"/>
  <circle cx="273.0" cy="598.4" r="1.39" fill="#11100f"/>
  <circle cx="524.5" cy="818.3" r="1.39" fill="#11100f"/>
  <circle cx="617.4" cy="637.1" r="1.39" fill="#11100f"/>
  <circle cx="650.4" cy="524.0" r="1.39" fill="#11100f"/>
  <circle cx="703.4" cy="542.0" r="1.39" fill="#11100f"/>
  <circle cx="271.0" cy="667.2" r="1.38" fill="#11100f"/>
  <circle cx="484.1" cy="394.1" r="1.38" fill="#11100f"/>
  <circle cx="491.5" cy="582.8" r="1.38" fill="#11100f"/>
  <circle cx="70.0" cy="331.3" r="1.38" fill="#11100f"/>
  <circle cx="277.9" cy="736.7" r="1.38" fill="#11100f"/>
  <circle cx="226.6" cy="604.6" r="1.37" fill="#11100f"/>
  <circle cx="569.9" cy="348.7" r="1.37" fill="#11100f"/>
  <circle cx="377.5" cy="647.3" r="1.37" fill="#11100f"/>
  <circle cx="475.3" cy="233.7" r="1.37" fill="#11100f"/>
  <circle cx="640.4" cy="815.1" r="1.37" fill="#11100f"/>
  <circle cx="263.7" cy="72.3" r="1.36" fill="#11100f"/>
  <circle cx="360.5" cy="319.3" r="1.36" fill="#11100f"/>
  <circle cx="410.4" cy="612.1" r="1.36" fill="#11100f"/>
  <circle cx="543.7" cy="186.1" r="1.36" fill="#11100f"/>
  <circle cx="664.3" cy="424.0" r="1.36" fill="#11100f"/>
  <circle cx="436.2" cy="595.9" r="1.35" fill="#11100f"/>
  <circle cx="462.1" cy="794.9" r="1.35" fill="#11100f"/>
  <circle cx="671.2" cy="878.3" r="1.35" fill="#11100f"/>
  <circle cx="398.9" cy="746.8" r="1.34" fill="#11100f"/>
  <circle cx="453.2" cy="532.4" r="1.34" fill="#11100f"/>
  <circle cx="463.4" cy="231.4" r="1.34" fill="#11100f"/>
  <circle cx="184.2" cy="74.9" r="1.34" fill="#11100f"/>
  <circle cx="252.7" cy="862.1" r="1.34" fill="#11100f"/>
  <circle cx="391.6" cy="403.6" r="1.34" fill="#11100f"/>
  <circle cx="418.9" cy="751.1" r="1.34" fill="#11100f"/>
  <circle cx="445.5" cy="698.5" r="1.34" fill="#11100f"/>
  <circle cx="454.5" cy="579.2" r="1.34" fill="#11100f"/>
  <circle cx="482.4" cy="433.3" r="1.34" fill="#11100f"/>
  <circle cx="574.5" cy="942.5" r="1.34" fill="#11100f"/>
  <circle cx="141.1" cy="790.1" r="1.33" fill="#11100f"/>
  <circle cx="193.9" cy="609.5" r="1.33" fill="#11100f"/>
  <circle cx="153.7" cy="253.5" r="1.33" fill="#11100f"/>
  <circle cx="327.2" cy="782.7" r="1.33" fill="#11100f"/>
  <circle cx="403.1" cy="688.1" r="1.33" fill="#11100f"/>
  <circle cx="474.3" cy="599.8" r="1.33" fill="#11100f"/>
  <circle cx="571.6" cy="714.4" r="1.33" fill="#11100f"/>
  <circle cx="685.4" cy="365.6" r="1.33" fill="#11100f"/>
  <circle cx="437.0" cy="310.3" r="1.32" fill="#11100f"/>
  <circle cx="604.9" cy="373.7" r="1.32" fill="#11100f"/>
  <rect x="379.4" y="720.5" width="8.8" height="8.8" fill="none" stroke="#b21d18" stroke-width="1.4" />
  <rect x="536.3" y="140.0" width="8.8" height="8.8" fill="none" stroke="#b21d18" stroke-width="1.4" />
  <ellipse cx="436.7" cy="617.7" rx="6.6" ry="4.1" fill="none" stroke="#b21d18" stroke-width="1.4" />
  <path d="M 379.6 184.4 L 384.7 189.5 L 379.6 194.6 L 374.5 189.5 Z" fill="none" stroke="#b21d18" stroke-width="1.4" />
  <rect x="380.3" y="716.9" width="8.8" height="8.8" fill="none" stroke="#b21d18" stroke-width="1.4" />
  <text x="391.8" y="718.9" fill="#b21d18" font-family="Helvetica, Arial, sans-serif" font-size="10">M42</text>
  <text x="548.7" y="138.4" fill="#b21d18" font-family="Helvetica, Arial, sans-serif" font-size="10">M35</text>
  <text x="444.7" y="611.7" fill="#b21d18" font-family="Helvetica, Arial, sans-serif" font-size="10">M78</text>
  <text x="387.6" y="183.5" fill="#b21d18" font-family="Helvetica, Arial, sans-serif" font-size="10">M1</text>
  <text x="392.7" y="715.3" fill="#b21d18" font-family="Helvetica, Arial, sans-serif" font-size="10">M43</text>
  <text x="293.1" y="772.5" fill="#43382e" font-family="Helvetica, Arial, sans-serif" font-size="9">beta</text>
  <text x="483.4" y="468.3" fill="#43382e" font-family="Helvetica, Arial, sans-serif" font-size="9">alpha</text>
  <text x="112.2" y="290.9" fill="#43382e" font-family="Helvetica, Arial, sans-serif" font-size="9">alpha</text>
  <text x="342.7" y="488.9" fill="#43382e" font-family="Helvetica, Arial, sans-serif" font-size="9">gamma</text>
  <text x="394.6" y="636.1" fill="#43382e" font-family="Helvetica, Arial, sans-serif" font-size="9">epsilon</text>
  <text x="374.9" y="618.5" fill="#43382e" font-family="Helvetica, Arial, sans-serif" font-size="9">delta</text>
  <text x="24" y="42" fill="#171412" font-family="Georgia, serif" font-size="26" font-weight="700">Orion</text>
  <text x="24" y="64" fill="#695a4d" font-family="Helvetica, Arial, sans-serif" font-size="11" letter-spacing="1.3">Ori · stars, IAU boundaries, Messier objects</text>
</svg>