<?xml version="1.0" encoding="UTF-8"?>
<svg xmlns="http://www.w3.org/2000/svg" width="760" height="182.28868924448437" viewBox="0 0 760 182.28868924448437">
  <rect width="760" height="182.28868924448437" rx="28" fill="#fffdf8"/>
  <rect x="16" y="16" width="728" height="150.28868924448437" rx="20" fill="none" stroke="#171412" stroke-width="1.2"/>
  <path d="M 151.7 116.8 L 619.7 114.6 L 601.3 90.1 L 594.9 65.5 L 543.1 65.8 L 491.1 66.1 L 492.6 74.3 L 255.7 75.4 L 140.3 75.8 L 142.5 92.2 L 151.7 116.8 Z" fill="none" stroke="#968774" stroke-width="1.15" stroke-dasharray="4 6"/>
  <circle cx="449.1" cy="70.6" r="3.69" fill="#11100f"/>
  <circle cx="294.1" cy="69.4" r="3.14" fill="#11100f"/>
  <circle cx="231.2" cy="57.3" r="2.96" fill="#11100f"/>
  <circle cx="58.1" cy="78.8" r="2.71" fill="#11100f"/>
  <circle cx="547.6" cy="56.4" r="2.71" fill="#11100f"/>
  <circle cx="240.5" cy="103.4" r="2.58" fill="#11100f"/>
  <circle cx="422.8" cy="102.9" r="2.56" fill="#11100f"/>
  <circle cx="646.6" cy="78.4" r="2.47" fill="#11100f"/>
  <circle cx="324.9" cy="61.7" r="2.42" fill="#11100f"/>
  <circle cx="439.4" cy="98.4" r="2.35" fill="#11100f"/>
  <circle cx="204.3" cy="118.6" r="2.30" fill="#11100f"/>
  <circle cx="670.6" cy="64.7" r="2.25" fill="#11100f"/>
  <circle cx="95.7" cy="55.8" r="2.18" fill="#11100f"/>
  <circle cx="400.2" cy="102.3" r="2.09" fill="#11100f"/>
  <circle cx="506.6" cy="66.4" r="2.04" fill="#11100f"/>
  <circle cx="650.8" cy="56.9" r="2.03" fill="#11100f"/>
  <circle cx="80.6" cy="66.8" r="2.02" fill="#11100f"/>
  <circle cx="84.0" cy="63.2" r="1.98" fill="#11100f"/>
  <circle cx="189.3" cy="109.9" r="1.96" fill="#11100f"/>
  <circle cx="414.2" cy="74.0" r="1.96" fill="#11100f"/>
  <circle cx="97.6" cy="89.8" r="1.88" fill="#11100f"/>
  <circle cx="196.5" cy="106.9" r="1.87" fill="#11100f"/>
  <circle cx="445.6" cy="64.3" r="1.84" fill="#11100f"/>
  <circle cx="357.3" cy="69.2" r="1.84" fill="#11100f"/>
  <circle cx="269.7" cy="54.2" r="1.81" fill="#11100f"/>
  <circle cx="400.4" cy="102.2" r="1.74" fill="#11100f"/>
  <circle cx="413.3" cy="54.3" r="1.74" fill="#11100f"/>
  <circle cx="693.0" cy="68.6" r="1.72" fill="#11100f"/>
  <circle cx="97.8" cy="55.7" r="1.71" fill="#11100f"/>
  <circle cx="257.8" cy="95.6" r="1.69" fill="#11100f"/>
  <circle cx="506.8" cy="74.2" r="1.67" fill="#11100f"/>
  <circle cx="315.9" cy="84.9" r="1.67" fill="#11100f"/>
  <circle cx="68.2" cy="58.4" r="1.64" fill="#11100f"/>
  <circle cx="613.0" cy="90.3" r="1.63" fill="#11100f"/>
  <circle cx="424.3" cy="77.0" r="1.61" fill="#11100f"/>
  <circle cx="426.8" cy="59.0" r="1.61" fill="#11100f"/>
  <circle cx="705.6" cy="62.8" r="1.60" fill="#11100f"/>
  <circle cx="344.1" cy="58.8" r="1.59" fill="#11100f"/>
  <circle cx="124.9" cy="125.6" r="1.58" fill="#11100f"/>
  <circle cx="201.2" cy="67.8" r="1.58" fill="#11100f"/>
  <circle cx="336.2" cy="121.2" r="1.57" fill="#11100f"/>
  <circle cx="249.7" cy="84.2" r="1.56" fill="#11100f"/>
  <circle cx="331.1" cy="85.1" r="1.53" fill="#11100f"/>
  <circle cx="98.8" cy="75.8" r="1.52" fill="#11100f"/>
  <circle cx="264.6" cy="117.2" r="1.52" fill="#11100f"/>
  <circle cx="269.7" cy="116.5" r="1.52" fill="#11100f"/>
  <circle cx="167.0" cy="96.1" r="1.50" fill="#11100f"/>
  <circle cx="375.3" cy="81.6" r="1.49" fill="#11100f"/>
  <circle cx="309.0" cy="55.8" r="1.49" fill="#11100f"/>
  <circle cx="656.3" cy="57.6" r="1.49" fill="#11100f"/>
  <circle cx="186.6" cy="62.6" r="1.48" fill="#11100f"/>
  <circle cx="143.7" cy="71.8" r="1.48" fill="#11100f"/>
  <circle cx="148.9" cy="66.0" r="1.47" fill="#11100f"/>
  <circle cx="363.3" cy="57.5" r="1.47" fill="#11100f"/>
  <circle cx="286.2" cy="74.0" r="1.46" fill="#11100f"/>
  <circle cx="277.8" cy="64.2" r="1.46" fill="#11100f"/>
  <circle cx="647.6" cy="55.9" r="1.46" fill="#11100f"/>
  <circle cx="123.6" cy="56.0" r="1.44" fill="#11100f"/>
  <circle cx="467.9" cy="71.4" r="1.44" fill="#11100f"/>
  <circle cx="523.0" cy="109.4" r="1.42" fill="#11100f"/>
  <circle cx="78.9" cy="101.5" r="1.41" fill="#11100f"/>
  <circle cx="211.8" cy="66.3" r="1.41" fill="#11100f"/>
  <circle cx="591.7" cy="93.1" r="1.40" fill="#11100f"/>
  <circle cx="594.0" cy="85.8" r="1.40" fill="#11100f"/>
  <circle cx="204.7" cy="60.0" r="1.40" fill="#11100f"/>
  <circle cx="491.6" cy="64.6" r="1.40" fill="#11100f"/>
  <circle cx="280.7" cy="122.3" r="1.39" fill="#11100f"/>
  <circle cx="629.1" cy="86.8" r="1.39" fill="#11100f"/>
  <circle cx="306.8" cy="68.2" r="1.38" fill="#11100f"/>
  <circle cx="436.5" cy="68.2" r="1.38" fill="#11100f"/>
  <circle cx="681.9" cy="69.7" r="1.38" fill="#11100f"/>
  <circle cx="76.3" cy="61.4" r="1.37" fill="#11100f"/>
  <circle cx="242.0" cy="62.6" r="1.37" fill="#11100f"/>
  <circle cx="74.7" cy="73.6" r="1.37" fill="#11100f"/>
  <circle cx="261.8" cy="97.2" r="1.37" fill="#11100f"/>
  <circle cx="59.6" cy="78.6" r="1.36" fill="#11100f"/>
  <circle cx="150.3" cy="115.3" r="1.35" fill="#11100f"/>
  <circle cx="333.8" cy="93.7" r="1.35" fill="#11100f"/>
  <circle cx="394.6" cy="67.0" r="1.35" fill="#11100f"/>
  <circle cx="622.9" cy="107.3" r="1.35" fill="#11100f"/>
  <circle cx="159.3" cy="61.5" r="1.34" fill="#11100f"/>
  <circle cx="676.0" cy="62.8" r="1.33" fill="#11100f"/>
  
  
  <text x="247.5" y="97.4" fill="#43382e" font-family="Helvetica, Arial, sans-serif" font-size="9">alpha</text>
  <text x="429.8" y="96.9" fill="#43382e" font-family="Helvetica, Arial, sans-serif" font-size="9">gamma</text>
  <text x="446.4" y="92.4" fill="#43382e" font-family="Helvetica, Arial, sans-serif" font-size="9">beta</text>
  <text x="407.2" y="96.3" fill="#43382e" font-family="Helvetica, Arial, sans-serif" font-size="9">delta1</text>
  <text x="203.5" y="100.9" fill="#43382e" font-family="Helvetica, Arial, sans-serif" font-size="9">epsilon</text>
  <text x="407.4" y="96.2" fill="#43382e" font-family="Helvetica, Arial, sans-serif" font-size="9">delta2</text>
  <text x="24" y="42" fill="#171412" font-family="Georgia, serif" font-size="26" font-weight="700">Bird of Paradise</text>
  <text x="24" y="64" fill="#695a4d" font-family="Helvetica, Arial, sans-serif" font-size="11" letter-spacing="1.3">Aps · stars, IAU boundaries, Messier objects</text>
</svg>