<?xml version="1.0" encoding="UTF-8"?>
<svg xmlns="http://www.w3.org/2000/svg" width="760" height="496.74528923441835" viewBox="0 0 760 496.74528923441835">
  <rect width="760" height="496.74528923441835" rx="28" fill="#fffdf8"/>
  <rect x="16" y="16" width="728" height="464.74528923441835" rx="20" fill="none" stroke="#171412" stroke-width="1.2"/>
  <path d="M 140.4 360.7 L 141.4 306.7 L 173.3 307.1 L 177.6 140.3 L 229.0 140.8 L 230.4 105.5 L 413.5 107.5 L 412.7 127.7 L 479.1 128.4 L 477.7 168.8 L 527.4 169.4 L 525.8 225.0 L 619.7 226.0 L 617.8 317.0 L 479.6 315.5 L 478.2 391.3 L 370.2 390.1 L 370.3 385.0 L 181.7 383.0 L 181.9 367.8 L 140.3 367.4 L 140.4 360.7 Z" fill="none" stroke="#968774" stroke-width="1.15" stroke-dasharray="4 6"/>
  <circle cx="247.7" cy="208.2" r="4.75" fill="#11100f"/>
  <circle cx="659.5" cy="389.9" r="4.13" fill="#11100f"/>
  <circle cx="629.8" cy="350.9" r="3.88" fill="#11100f"/>
  <circle cx="274.4" cy="384.1" r="3.84" fill="#11100f"/>
  <circle cx="366.4" cy="218.9" r="3.70" fill="#11100f"/>
  <circle cx="367.0" cy="297.1" r="3.26" fill="#11100f"/>
  <circle cx="193.2" cy="338.0" r="3.24" fill="#11100f"/>
  <circle cx="207.0" cy="230.2" r="3.04" fill="#11100f"/>
  <circle cx="489.5" cy="419.2" r="3.03" fill="#11100f"/>
  <circle cx="219.6" cy="256.4" r="2.96" fill="#11100f"/>
  <circle cx="657.1" cy="426.6" r="2.73" fill="#11100f"/>
  <circle cx="514.0" cy="329.9" r="2.71" fill="#11100f"/>
  <circle cx="208.4" cy="258.0" r="2.66" fill="#11100f"/>
  <circle cx="366.4" cy="124.5" r="2.64" fill="#11100f"/>
  <circle cx="605.3" cy="392.2" r="2.61" fill="#11100f"/>
  <circle cx="59.3" cy="190.9" r="2.50" fill="#11100f"/>
  <circle cx="344.2" cy="277.5" r="2.50" fill="#11100f"/>
  <circle cx="211.0" cy="62.2" r="2.46" fill="#11100f"/>
  <circle cx="633.5" cy="401.4" r="2.45" fill="#11100f"/>
  <circle cx="76.5" cy="183.9" r="2.41" fill="#11100f"/>
  <circle cx="379.2" cy="438.1" r="2.39" fill="#11100f"/>
  <circle cx="614.7" cy="351.9" r="2.39" fill="#11100f"/>
  <circle cx="654.0" cy="381.3" r="2.35" fill="#11100f"/>
  <circle cx="136.9" cy="256.1" r="2.33" fill="#11100f"/>
  <circle cx="152.3" cy="441.2" r="2.32" fill="#11100f"/>
  <circle cx="108.2" cy="442.6" r="2.32" fill="#11100f"/>
  <circle cx="367.6" cy="208.9" r="2.31" fill="#11100f"/>
  <circle cx="410.4" cy="375.0" r="2.29" fill="#11100f"/>
  <circle cx="526.4" cy="82.6" r="2.28" fill="#11100f"/>
  <circle cx="564.9" cy="367.5" r="2.24" fill="#11100f"/>
  <circle cx="194.0" cy="129.8" r="2.23" fill="#11100f"/>
  <circle cx="422.1" cy="76.7" r="2.22" fill="#11100f"/>
  <circle cx="337.8" cy="277.2" r="2.18" fill="#11100f"/>
  <circle cx="251.9" cy="335.9" r="2.17" fill="#11100f"/>
  <circle cx="349.3" cy="394.1" r="2.16" fill="#11100f"/>
  <circle cx="85.8" cy="164.8" r="2.13" fill="#11100f"/>
  <circle cx="608.0" cy="175.7" r="2.13" fill="#11100f"/>
  <circle cx="76.5" cy="264.0" r="2.09" fill="#11100f"/>
  <circle cx="254.5" cy="267.9" r="2.08" fill="#11100f"/>
  <circle cx="292.2" cy="347.8" r="2.07" fill="#11100f"/>
  <circle cx="342.9" cy="296.1" r="2.06" fill="#11100f"/>
  <circle cx="181.1" cy="302.2" r="2.02" fill="#11100f"/>
  <circle cx="95.0" cy="203.2" r="2.02" fill="#11100f"/>
  <circle cx="476.7" cy="243.7" r="2.02" fill="#11100f"/>
  <circle cx="362.2" cy="410.9" r="2.01" fill="#11100f"/>
  <circle cx="238.7" cy="284.2" r="2.00" fill="#11100f"/>
  <circle cx="495.9" cy="72.3" r="1.98" fill="#11100f"/>
  <circle cx="337.3" cy="424.9" r="1.97" fill="#11100f"/>
  <circle cx="173.6" cy="294.3" r="1.96" fill="#11100f"/>
  <circle cx="642.5" cy="323.6" r="1.96" fill="#11100f"/>
  <circle cx="527.4" cy="217.4" r="1.96" fill="#11100f"/>
  <circle cx="566.3" cy="275.7" r="1.95" fill="#11100f"/>
  <circle cx="436.7" cy="175.0" r="1.95" fill="#11100f"/>
  <circle cx="91.8" cy="323.8" r="1.94" fill="#11100f"/>
  <circle cx="199.4" cy="290.2" r="1.94" fill="#11100f"/>
  <circle cx="653.1" cy="79.7" r="1.94" fill="#11100f"/>
  <circle cx="353.5" cy="110.1" r="1.92" fill="#11100f"/>
  <circle cx="91.7" cy="396.8" r="1.92" fill="#11100f"/>
  <circle cx="682.2" cy="402.7" r="1.92" fill="#11100f"/>
  <circle cx="220.0" cy="151.6" r="1.91" fill="#11100f"/>
  <circle cx="508.4" cy="250.9" r="1.91" fill="#11100f"/>
  <circle cx="585.3" cy="173.2" r="1.90" fill="#11100f"/>
  <circle cx="244.2" cy="342.8" r="1.89" fill="#11100f"/>
  <circle cx="616.6" cy="391.0" r="1.89" fill="#11100f"/>
  <circle cx="269.8" cy="295.3" r="1.89" fill="#11100f"/>
  <circle cx="487.1" cy="223.1" r="1.88" fill="#11100f"/>
  <circle cx="599.0" cy="420.0" r="1.88" fill="#11100f"/>
  <circle cx="257.0" cy="330.0" r="1.87" fill="#11100f"/>
  <circle cx="145.8" cy="136.6" r="1.86" fill="#11100f"/>
  <circle cx="615.3" cy="389.0" r="1.86" fill="#11100f"/>
  <circle cx="278.1" cy="324.7" r="1.85" fill="#11100f"/>
  <circle cx="595.1" cy="301.6" r="1.83" fill="#11100f"/>
  <circle cx="665.6" cy="335.4" r="1.82" fill="#11100f"/>
  <circle cx="663.3" cy="294.0" r="1.81" fill="#11100f"/>
  <circle cx="311.6" cy="411.5" r="1.80" fill="#11100f"/>
  <circle cx="81.6" cy="131.3" r="1.78" fill="#11100f"/>
  <circle cx="353.8" cy="67.8" r="1.78" fill="#11100f"/>
  <circle cx="540.7" cy="428.5" r="1.78" fill="#11100f"/>
  <circle cx="578.1" cy="70.3" r="1.78" fill="#11100f"/>
  <circle cx="54.7" cy="380.1" r="1.78" fill="#11100f"/>
  <circle cx="442.0" cy="82.7" r="1.78" fill="#11100f"/>
  <circle cx="218.5" cy="77.1" r="1.77" fill="#11100f"/>
  <circle cx="261.9" cy="250.6" r="1.77" fill="#11100f"/>
  <circle cx="499.8" cy="180.0" r="1.77" fill="#11100f"/>
  <circle cx="600.9" cy="262.1" r="1.77" fill="#11100f"/>
  <circle cx="266.5" cy="91.5" r="1.76" fill="#11100f"/>
  <circle cx="497.2" cy="232.7" r="1.76" fill="#11100f"/>
  <circle cx="465.3" cy="390.0" r="1.75" fill="#11100f"/>
  <circle cx="107.6" cy="355.4" r="1.73" fill="#11100f"/>
  <circle cx="168.3" cy="99.5" r="1.73" fill="#11100f"/>
  <circle cx="154.1" cy="234.9" r="1.73" fill="#11100f"/>
  <circle cx="656.2" cy="412.6" r="1.73" fill="#11100f"/>
  <circle cx="656.1" cy="163.4" r="1.72" fill="#11100f"/>
  <circle cx="428.1" cy="132.9" r="1.70" fill="#11100f"/>
  <circle cx="475.3" cy="269.9" r="1.70" fill="#11100f"/>
  <circle cx="497.5" cy="95.3" r="1.70" fill="#11100f"/>
  <circle cx="514.8" cy="72.3" r="1.70" fill="#11100f"/>
  <circle cx="631.4" cy="360.3" r="1.70" fill="#11100f"/>
  <circle cx="386.0" cy="284.2" r="1.70" fill="#11100f"/>
  <circle cx="395.4" cy="77.4" r="1.70" fill="#11100f"/>
  <circle cx="616.9" cy="171.1" r="1.70" fill="#11100f"/>
  <circle cx="146.0" cy="132.7" r="1.69" fill="#11100f"/>
  <circle cx="299.7" cy="430.2" r="1.69" fill="#11100f"/>
  <circle cx="411.2" cy="66.7" r="1.69" fill="#11100f"/>
  <circle cx="97.8" cy="414.2" r="1.68" fill="#11100f"/>
  <circle cx="254.2" cy="332.1" r="1.68" fill="#11100f"/>
  <circle cx="65.3" cy="405.6" r="1.67" fill="#11100f"/>
  <circle cx="95.6" cy="59.2" r="1.67" fill="#11100f"/>
  <circle cx="308.6" cy="365.0" r="1.67" fill="#11100f"/>
  <circle cx="469.0" cy="284.6" r="1.67" fill="#11100f"/>
  <circle cx="491.8" cy="380.4" r="1.66" fill="#11100f"/>
  <circle cx="88.5" cy="167.3" r="1.63" fill="#11100f"/>
  <circle cx="257.6" cy="257.9" r="1.63" fill="#11100f"/>
  <circle cx="328.7" cy="169.5" r="1.63" fill="#11100f"/>
  <circle cx="571.1" cy="153.3" r="1.63" fill="#11100f"/>
  <circle cx="282.6" cy="419.0" r="1.63" fill="#11100f"/>
  <circle cx="685.6" cy="192.4" r="1.63" fill="#11100f"/>
  <circle cx="224.0" cy="428.0" r="1.61" fill="#11100f"/>
  <circle cx="59.1" cy="288.7" r="1.60" fill="#11100f"/>
  <circle cx="187.8" cy="114.6" r="1.60" fill="#11100f"/>
  <circle cx="110.9" cy="440.8" r="1.59" fill="#11100f"/>
  <circle cx="441.0" cy="104.2" r="1.59" fill="#11100f"/>
  <circle cx="264.8" cy="258.5" r="1.59" fill="#11100f"/>
  <circle cx="501.3" cy="110.1" r="1.59" fill="#11100f"/>
  <circle cx="577.9" cy="195.7" r="1.59" fill="#11100f"/>
  <circle cx="91.2" cy="158.5" r="1.58" fill="#11100f"/>
  <circle cx="252.1" cy="240.6" r="1.58" fill="#11100f"/>
  <circle cx="551.1" cy="324.7" r="1.58" fill="#11100f"/>
  <circle cx="171.6" cy="355.4" r="1.57" fill="#11100f"/>
  <circle cx="640.8" cy="318.9" r="1.56" fill="#11100f"/>
  <circle cx="648.2" cy="186.7" r="1.56" fill="#11100f"/>
  <circle cx="342.7" cy="390.5" r="1.55" fill="#11100f"/>
  <circle cx="177.0" cy="180.5" r="1.53" fill="#11100f"/>
  <circle cx="150.0" cy="185.0" r="1.52" fill="#11100f"/>
  <circle cx="260.3" cy="374.3" r="1.52" fill="#11100f"/>
  <circle cx="635.2" cy="206.4" r="1.52" fill="#11100f"/>
  <circle cx="231.2" cy="198.5" r="1.51" fill="#11100f"/>
  <circle cx="181.5" cy="242.7" r="1.51" fill="#11100f"/>
  <circle cx="511.8" cy="434.7" r="1.51" fill="#11100f"/>
  <circle cx="276.7" cy="367.9" r="1.50" fill="#11100f"/>
  <circle cx="474.9" cy="275.0" r="1.49" fill="#11100f"/>
  <circle cx="613.9" cy="186.1" r="1.49" fill="#11100f"/>
  <circle cx="370.5" cy="189.0" r="1.49" fill="#11100f"/>
  <circle cx="82.7" cy="88.3" r="1.48" fill="#11100f"/>
  <circle cx="505.4" cy="343.6" r="1.48" fill="#11100f"/>
  <circle cx="103.1" cy="328.2" r="1.48" fill="#11100f"/>
  <circle cx="149.8" cy="384.0" r="1.48" fill="#11100f"/>
  <circle cx="302.9" cy="123.0" r="1.47" fill="#11100f"/>
  <circle cx="521.0" cy="416.7" r="1.47" fill="#11100f"/>
  <circle cx="593.0" cy="216.0" r="1.47" fill="#11100f"/>
  <circle cx="65.7" cy="333.7" r="1.46" fill="#11100f"/>
  <circle cx="190.8" cy="138.8" r="1.46" fill="#11100f"/>
  <circle cx="394.7" cy="439.6" r="1.46" fill="#11100f"/>
  <circle cx="446.9" cy="365.0" r="1.46" fill="#11100f"/>
  <circle cx="565.5" cy="401.8" r="1.46" fill="#11100f"/>
  <circle cx="578.2" cy="391.2" r="1.46" fill="#11100f"/>
  <circle cx="474.1" cy="380.2" r="1.46" fill="#11100f"/>
  <circle cx="103.5" cy="329.9" r="1.45" fill="#11100f"/>
  <circle cx="602.0" cy="393.9" r="1.45" fill="#11100f"/>
  <circle cx="645.5" cy="285.6" r="1.45" fill="#11100f"/>
  <circle cx="124.0" cy="128.2" r="1.45" fill="#11100f"/>
  <circle cx="399.9" cy="180.8" r="1.45" fill="#11100f"/>
  <circle cx="401.9" cy="342.7" r="1.45" fill="#11100f"/>
  <circle cx="704.0" cy="76.3" r="1.45" fill="#11100f"/>
  <circle cx="195.4" cy="431.2" r="1.44" fill="#11100f"/>
  <circle cx="196.4" cy="420.0" r="1.44" fill="#11100f"/>
  <circle cx="597.3" cy="114.4" r="1.44" fill="#11100f"/>
  <circle cx="603.1" cy="148.7" r="1.44" fill="#11100f"/>
  <circle cx="457.7" cy="345.2" r="1.42" fill="#11100f"/>
  <circle cx="304.4" cy="401.1" r="1.42" fill="#11100f"/>
  <circle cx="399.7" cy="426.4" r="1.42" fill="#11100f"/>
  <circle cx="171.9" cy="343.8" r="1.41" fill="#11100f"/>
  <circle cx="574.7" cy="421.7" r="1.41" fill="#11100f"/>
  <circle cx="524.4" cy="205.4" r="1.41" fill="#11100f"/>
  <circle cx="568.5" cy="429.3" r="1.41" fill="#11100f"/>
  <circle cx="155.4" cy="168.0" r="1.40" fill="#11100f"/>
  <circle cx="453.0" cy="85.3" r="1.40" fill="#11100f"/>
  <circle cx="472.0" cy="98.4" r="1.40" fill="#11100f"/>
  <circle cx="584.0" cy="259.9" r="1.40" fill="#11100f"/>
  <circle cx="702.8" cy="416.6" r="1.40" fill="#11100f"/>
  <circle cx="131.2" cy="380.5" r="1.39" fill="#11100f"/>
  <circle cx="451.0" cy="201.3" r="1.39" fill="#11100f"/>
  <circle cx="525.5" cy="201.1" r="1.39" fill="#11100f"/>
  <circle cx="353.8" cy="352.8" r="1.38" fill="#11100f"/>
  <circle cx="366.0" cy="168.5" r="1.38" fill="#11100f"/>
  <circle cx="381.8" cy="238.7" r="1.38" fill="#11100f"/>
  <circle cx="95.8" cy="102.0" r="1.37" fill="#11100f"/>
  <circle cx="525.7" cy="332.8" r="1.37" fill="#11100f"/>
  <circle cx="275.8" cy="325.6" r="1.37" fill="#11100f"/>
  <circle cx="228.5" cy="389.9" r="1.36" fill="#11100f"/>
  <circle cx="330.4" cy="105.9" r="1.36" fill="#11100f"/>
  <circle cx="543.7" cy="376.7" r="1.36" fill="#11100f"/>
  <circle cx="582.6" cy="146.2" r="1.36" fill="#11100f"/>
  <circle cx="635.9" cy="109.6" r="1.36" fill="#11100f"/>
  <circle cx="639.0" cy="180.2" r="1.36" fill="#11100f"/>
  <circle cx="647.5" cy="440.6" r="1.36" fill="#11100f"/>
  <circle cx="269.8" cy="358.4" r="1.35" fill="#11100f"/>
  <circle cx="554.4" cy="329.4" r="1.35" fill="#11100f"/>
  <circle cx="91.3" cy="250.6" r="1.35" fill="#11100f"/>
  <circle cx="202.4" cy="275.0" r="1.35" fill="#11100f"/>
  <circle cx="151.2" cy="286.3" r="1.34" fill="#11100f"/>
  <circle cx="181.5" cy="391.2" r="1.34" fill="#11100f"/>
  <circle cx="310.4" cy="377.9" r="1.33" fill="#11100f"/>
  <circle cx="372.5" cy="178.3" r="1.33" fill="#11100f"/>
  <circle cx="164.8" cy="265.7" r="1.33" fill="#11100f"/>
  <circle cx="246.7" cy="326.4" r="1.33" fill="#11100f"/>
  <circle cx="286.9" cy="254.1" r="1.33" fill="#11100f"/>
  <circle cx="219.5" cy="54.9" r="1.32" fill="#11100f"/>
  <rect x="388.0" y="422.9" width="8.8" height="8.8" fill="none" stroke="#b21d18" stroke-width="1.4" />
  <rect x="342.3" y="339.8" width="8.8" height="8.8" fill="none" stroke="#b21d18" stroke-width="1.4" />
  <rect x="297.1" y="323.8" width="8.8" height="8.8" fill="none" stroke="#b21d18" stroke-width="1.4" />
  <rect x="276.6" y="306.6" width="8.8" height="8.8" fill="none" stroke="#b21d18" stroke-width="1.4" />
  <text x="400.4" y="421.3" fill="#b21d18" font-family="Helvetica, Arial, sans-serif" font-size="10">M35</text>
  <text x="354.7" y="338.2" fill="#b21d18" font-family="Helvetica, Arial, sans-serif" font-size="10">M37</text>
  <text x="309.5" y="322.2" fill="#b21d18" font-family="Helvetica, Arial, sans-serif" font-size="10">M36</text>
  <text x="289.0" y="305.0" fill="#b21d18" font-family="Helvetica, Arial, sans-serif" font-size="10">M38</text>
  <text x="254.7" y="202.2" fill="#43382e" font-family="Helvetica, Arial, sans-serif" font-size="9">alpha</text>
  <text x="666.5" y="383.9" fill="#43382e" font-family="Helvetica, Arial, sans-serif" font-size="9">beta</text>
  <text x="373.4" y="212.9" fill="#43382e" font-family="Helvetica, Arial, sans-serif" font-size="9">beta</text>
  <text x="214.0" y="224.2" fill="#43382e" font-family="Helvetica, Arial, sans-serif" font-size="9">epsilon</text>
  <text x="373.4" y="118.5" fill="#43382e" font-family="Helvetica, Arial, sans-serif" font-size="9">delta</text>
  <text x="24" y="42" fill="#171412" font-family="Georgia, serif" font-size="26" font-weight="700">Charioteer</text>
  <text x="24" y="64" fill="#695a4d" font-family="Helvetica, Arial, sans-serif" font-size="11" letter-spacing="1.3">Aur · stars, IAU boundaries, Messier objects</text>
</svg>