<?xml version="1.0" encoding="UTF-8"?>
<svg xmlns="http://www.w3.org/2000/svg" width="760" height="511.3631184568562" viewBox="0 0 760 511.3631184568562">
  <rect width="760" height="511.3631184568562" rx="28" fill="#fffdf8"/>
  <rect x="16" y="16" width="728" height="479.3631184568562" rx="20" fill="none" stroke="#171412" stroke-width="1.2"/>
  <path d="M 140.3 109.6 L 142.1 235.1 L 143.3 301.6 L 302.1 300.6 L 303.9 404.0 L 619.7 402.8 L 618.5 151.7 L 618.3 107.4 L 538.7 107.6 L 140.3 109.6 Z" fill="none" stroke="#968774" stroke-width="1.15" stroke-dasharray="4 6"/>
  <circle cx="303.0" cy="264.7" r="3.80" fill="#11100f"/>
  <circle cx="441.3" cy="263.6" r="3.60" fill="#11100f"/>
  <circle cx="245.6" cy="122.9" r="3.06" fill="#11100f"/>
  <circle cx="465.0" cy="329.0" r="2.78" fill="#11100f"/>
  <circle cx="552.6" cy="239.4" r="2.55" fill="#11100f"/>
  <circle cx="387.5" cy="213.5" r="2.50" fill="#11100f"/>
  <circle cx="581.0" cy="431.2" r="2.49" fill="#11100f"/>
  <circle cx="514.5" cy="350.3" r="2.42" fill="#11100f"/>
  <circle cx="389.5" cy="217.2" r="2.41" fill="#11100f"/>
  <circle cx="538.6" cy="213.9" r="2.32" fill="#11100f"/>
  <circle cx="209.5" cy="58.8" r="2.28" fill="#11100f"/>
  <circle cx="643.4" cy="129.6" r="2.26" fill="#11100f"/>
  <circle cx="108.8" cy="360.5" r="2.25" fill="#11100f"/>
  <circle cx="261.6" cy="383.3" r="2.25" fill="#11100f"/>
  <circle cx="480.9" cy="56.6" r="2.21" fill="#11100f"/>
  <circle cx="294.5" cy="155.1" r="2.21" fill="#11100f"/>
  <circle cx="303.6" cy="58.3" r="2.19" fill="#11100f"/>
  <circle cx="283.5" cy="409.8" r="2.08" fill="#11100f"/>
  <circle cx="651.8" cy="200.5" r="2.08" fill="#11100f"/>
  <circle cx="663.0" cy="243.0" r="2.05" fill="#11100f"/>
  <circle cx="332.7" cy="181.7" r="2.02" fill="#11100f"/>
  <circle cx="112.4" cy="173.8" r="2.02" fill="#11100f"/>
  <circle cx="444.7" cy="182.7" r="1.99" fill="#11100f"/>
  <circle cx="453.3" cy="361.3" r="1.99" fill="#11100f"/>
  <circle cx="303.8" cy="73.9" r="1.91" fill="#11100f"/>
  <circle cx="336.0" cy="185.9" r="1.84" fill="#11100f"/>
  <circle cx="525.0" cy="84.3" r="1.83" fill="#11100f"/>
  <circle cx="700.8" cy="312.9" r="1.80" fill="#11100f"/>
  <circle cx="81.4" cy="153.4" r="1.75" fill="#11100f"/>
  <circle cx="157.9" cy="179.3" r="1.73" fill="#11100f"/>
  <circle cx="370.1" cy="424.8" r="1.72" fill="#11100f"/>
  <circle cx="343.3" cy="363.2" r="1.69" fill="#11100f"/>
  <circle cx="309.9" cy="73.4" r="1.69" fill="#11100f"/>
  <circle cx="529.7" cy="368.1" r="1.69" fill="#11100f"/>
  <circle cx="475.0" cy="149.4" r="1.65" fill="#11100f"/>
  <circle cx="255.4" cy="121.3" r="1.64" fill="#11100f"/>
  <circle cx="385.1" cy="149.0" r="1.63" fill="#11100f"/>
  <circle cx="137.5" cy="199.5" r="1.61" fill="#11100f"/>
  <circle cx="267.2" cy="138.1" r="1.61" fill="#11100f"/>
  <circle cx="453.4" cy="258.6" r="1.60" fill="#11100f"/>
  <circle cx="617.8" cy="349.8" r="1.59" fill="#11100f"/>
  <circle cx="583.9" cy="174.0" r="1.59" fill="#11100f"/>
  <circle cx="54.8" cy="182.3" r="1.58" fill="#11100f"/>
  <circle cx="163.1" cy="233.5" r="1.57" fill="#11100f"/>
  <circle cx="222.8" cy="269.7" r="1.57" fill="#11100f"/>
  <circle cx="612.7" cy="410.7" r="1.55" fill="#11100f"/>
  <circle cx="293.5" cy="451.9" r="1.54" fill="#11100f"/>
  <circle cx="362.9" cy="249.4" r="1.54" fill="#11100f"/>
  <circle cx="538.7" cy="145.5" r="1.54" fill="#11100f"/>
  <circle cx="620.4" cy="434.8" r="1.53" fill="#11100f"/>
  <circle cx="134.9" cy="129.8" r="1.53" fill="#11100f"/>
  <circle cx="426.0" cy="59.7" r="1.52" fill="#11100f"/>
  <circle cx="515.5" cy="323.6" r="1.51" fill="#11100f"/>
  <circle cx="498.1" cy="279.6" r="1.48" fill="#11100f"/>
  <circle cx="92.3" cy="357.8" r="1.48" fill="#11100f"/>
  <circle cx="608.2" cy="337.5" r="1.46" fill="#11100f"/>
  <circle cx="127.0" cy="176.7" r="1.46" fill="#11100f"/>
  <circle cx="571.1" cy="178.2" r="1.45" fill="#11100f"/>
  <circle cx="527.0" cy="183.7" r="1.44" fill="#11100f"/>
  <circle cx="540.1" cy="319.7" r="1.43" fill="#11100f"/>
  <circle cx="78.1" cy="165.8" r="1.42" fill="#11100f"/>
  <circle cx="551.0" cy="204.1" r="1.42" fill="#11100f"/>
  <circle cx="418.5" cy="170.6" r="1.41" fill="#11100f"/>
  <circle cx="551.8" cy="170.6" r="1.38" fill="#11100f"/>
  <circle cx="577.9" cy="228.2" r="1.37" fill="#11100f"/>
  <circle cx="82.5" cy="109.0" r="1.34" fill="#11100f"/>
  <circle cx="158.5" cy="72.4" r="1.34" fill="#11100f"/>
  <circle cx="433.9" cy="419.2" r="1.33" fill="#11100f"/>
  <circle cx="441.1" cy="268.4" r="1.33" fill="#11100f"/>
  
  
  <text x="310.0" y="258.7" fill="#43382e" font-family="Helvetica, Arial, sans-serif" font-size="9">alpha</text>
  <text x="448.3" y="257.6" fill="#43382e" font-family="Helvetica, Arial, sans-serif" font-size="9">beta</text>
  <text x="252.6" y="116.9" fill="#43382e" font-family="Helvetica, Arial, sans-serif" font-size="9">gamma</text>
  <text x="472.0" y="323.0" fill="#43382e" font-family="Helvetica, Arial, sans-serif" font-size="9">epsilon</text>
  <text x="394.5" y="207.5" fill="#43382e" font-family="Helvetica, Arial, sans-serif" font-size="9">delta1</text>
  <text x="396.5" y="211.2" fill="#43382e" font-family="Helvetica, Arial, sans-serif" font-size="9">delta2</text>
  <text x="24" y="42" fill="#171412" font-family="Georgia, serif" font-size="26" font-weight="700">Crane</text>
  <text x="24" y="64" fill="#695a4d" font-family="Helvetica, Arial, sans-serif" font-size="11" letter-spacing="1.3">Gru · stars, IAU boundaries, Messier objects</text>
</svg>