<?xml version="1.0" encoding="UTF-8"?>
<svg xmlns="http://www.w3.org/2000/svg" width="760" height="528.9604895043611" viewBox="0 0 760 528.9604895043611">
  <rect width="760" height="528.9604895043611" rx="28" fill="#fffdf8"/>
  <rect x="16" y="16" width="728" height="496.96048950436114" rx="20" fill="none" stroke="#171412" stroke-width="1.2"/>
  <path d="M 234.2 395.9 L 234.7 328.5 L 140.3 328.1 L 141.0 215.8 L 141.4 170.8 L 357.9 171.9 L 358.3 132.6 L 547.4 133.8 L 565.7 134.0 L 564.9 195.7 L 619.7 196.1 L 618.8 271.0 L 509.2 270.2 L 508.4 346.9 L 325.9 345.8 L 325.5 396.3 L 234.2 395.9 Z" fill="none" stroke="#968774" stroke-width="1.15" stroke-dasharray="4 6"/>
  <circle cx="356.4" cy="444.5" r="3.63" fill="#11100f"/>
  <circle cx="370.8" cy="185.6" r="3.06" fill="#11100f"/>
  <circle cx="271.1" cy="307.1" r="2.82" fill="#11100f"/>
  <circle cx="615.6" cy="359.2" r="2.71" fill="#11100f"/>
  <circle cx="417.8" cy="211.2" r="2.46" fill="#11100f"/>
  <circle cx="619.2" cy="110.8" r="2.35" fill="#11100f"/>
  <circle cx="603.0" cy="314.5" r="2.18" fill="#11100f"/>
  <circle cx="624.8" cy="184.0" r="2.16" fill="#11100f"/>
  <circle cx="576.0" cy="349.1" r="2.10" fill="#11100f"/>
  <circle cx="668.7" cy="80.6" r="2.09" fill="#11100f"/>
  <circle cx="67.7" cy="359.1" r="2.05" fill="#11100f"/>
  <circle cx="364.4" cy="121.1" r="2.03" fill="#11100f"/>
  <circle cx="300.5" cy="441.5" r="2.02" fill="#11100f"/>
  <circle cx="416.2" cy="202.8" r="1.99" fill="#11100f"/>
  <circle cx="568.8" cy="68.7" r="1.95" fill="#11100f"/>
  <circle cx="387.9" cy="290.8" r="1.93" fill="#11100f"/>
  <circle cx="670.5" cy="181.2" r="1.93" fill="#11100f"/>
  <circle cx="195.5" cy="60.1" r="1.92" fill="#11100f"/>
  <circle cx="370.1" cy="388.8" r="1.91" fill="#11100f"/>
  <circle cx="352.8" cy="462.8" r="1.88" fill="#11100f"/>
  <circle cx="659.8" cy="254.2" r="1.84" fill="#11100f"/>
  <circle cx="507.3" cy="159.6" r="1.81" fill="#11100f"/>
  <circle cx="77.7" cy="326.0" r="1.77" fill="#11100f"/>
  <circle cx="409.5" cy="222.2" r="1.75" fill="#11100f"/>
  <circle cx="427.7" cy="328.1" r="1.73" fill="#11100f"/>
  <circle cx="483.5" cy="305.1" r="1.73" fill="#11100f"/>
  <circle cx="559.3" cy="363.6" r="1.73" fill="#11100f"/>
  <circle cx="638.1" cy="110.4" r="1.70" fill="#11100f"/>
  <circle cx="529.6" cy="192.3" r="1.68" fill="#11100f"/>
  <circle cx="272.4" cy="56.6" r="1.66" fill="#11100f"/>
  <circle cx="331.0" cy="223.9" r="1.61" fill="#11100f"/>
  <circle cx="479.3" cy="257.2" r="1.58" fill="#11100f"/>
  <circle cx="408.1" cy="409.0" r="1.57" fill="#11100f"/>
  <circle cx="93.1" cy="124.4" r="1.55" fill="#11100f"/>
  <circle cx="204.4" cy="179.8" r="1.53" fill="#11100f"/>
  <circle cx="335.1" cy="388.9" r="1.53" fill="#11100f"/>
  <circle cx="289.7" cy="134.8" r="1.50" fill="#11100f"/>
  <circle cx="528.8" cy="133.4" r="1.48" fill="#11100f"/>
  <circle cx="287.9" cy="441.9" r="1.46" fill="#11100f"/>
  <circle cx="244.6" cy="237.2" r="1.45" fill="#11100f"/>
  <circle cx="408.5" cy="392.4" r="1.44" fill="#11100f"/>
  <circle cx="253.3" cy="471.1" r="1.42" fill="#11100f"/>
  <circle cx="299.3" cy="346.9" r="1.41" fill="#11100f"/>
  <circle cx="512.0" cy="195.6" r="1.41" fill="#11100f"/>
  <circle cx="497.9" cy="404.7" r="1.39" fill="#11100f"/>
  <circle cx="288.2" cy="134.2" r="1.38" fill="#11100f"/>
  <circle cx="487.4" cy="299.2" r="1.38" fill="#11100f"/>
  <circle cx="608.2" cy="405.7" r="1.38" fill="#11100f"/>
  <circle cx="157.3" cy="135.1" r="1.38" fill="#11100f"/>
  <circle cx="536.7" cy="101.5" r="1.37" fill="#11100f"/>
  <circle cx="687.7" cy="377.1" r="1.37" fill="#11100f"/>
  <circle cx="244.3" cy="119.0" r="1.35" fill="#11100f"/>
  <circle cx="389.4" cy="428.6" r="1.34" fill="#11100f"/>
  <circle cx="202.0" cy="296.6" r="1.34" fill="#11100f"/>
  <ellipse cx="155.0" cy="283.0" rx="6.6" ry="4.1" fill="none" stroke="#b21d18" stroke-width="1.4" />
  <text x="163.0" y="277.0" fill="#b21d18" font-family="Helvetica, Arial, sans-serif" font-size="10">M33</text>
  <text x="377.8" y="179.6" fill="#43382e" font-family="Helvetica, Arial, sans-serif" font-size="9">beta</text>
  <text x="278.1" y="301.1" fill="#43382e" font-family="Helvetica, Arial, sans-serif" font-size="9">alpha</text>
  <text x="424.8" y="205.2" fill="#43382e" font-family="Helvetica, Arial, sans-serif" font-size="9">gamma</text>
  <text x="423.2" y="196.8" fill="#43382e" font-family="Helvetica, Arial, sans-serif" font-size="9">delta</text>
  <text x="338.0" y="217.9" fill="#43382e" font-family="Helvetica, Arial, sans-serif" font-size="9">epsilon</text>
  <text x="24" y="42" fill="#171412" font-family="Georgia, serif" font-size="26" font-weight="700">Triangle</text>
  <text x="24" y="64" fill="#695a4d" font-family="Helvetica, Arial, sans-serif" font-size="11" letter-spacing="1.3">Tri · stars, IAU boundaries, Messier objects</text>
</svg>